<svg width="40" height="41" viewBox="0 0 40 41" fill="none" xmlns="http://www.w3.org/2000/svg">
<circle cx="20" cy="20.3481" r="20" fill="white"/>
<g clip-path="url(#clip0_171_12849)">
<path d="M10.4 29.5709V12.3953C10.4 10.5139 12.46 9.33807 14.1089 10.2795L29.1639 18.8669C30.8121 19.8075 30.8121 22.1578 29.1639 23.0978L14.1089 31.686C12.4606 32.6266 10.4 31.4515 10.4 29.5709Z" fill="#303030"/>
<path d="M25.4735 16.762L17.5634 21.3171L16.053 18.6413C15.9692 18.4924 15.8567 18.3616 15.722 18.2565C15.5873 18.1513 15.433 18.074 15.2682 18.0288C14.9349 17.9353 14.5781 17.9774 14.2758 18.1461L10.4 20.2979V22.9365L14.5214 20.6475L16.0385 23.3371C16.2082 23.6371 16.4979 23.8613 16.8331 23.9523C17.1708 24.043 17.5307 23.9967 17.8344 23.8234L27.7956 18.0862L25.4735 16.762Z" fill="white"/>
</g>
<defs>
<clipPath id="clip0_171_12849">
<rect width="20" height="22.1094" fill="white" transform="translate(10.4 9.948)"/>
</clipPath>
</defs>
</svg>
