<svg width="74" height="74" viewBox="0 0 74 74" fill="none" xmlns="http://www.w3.org/2000/svg">
<g filter="url(#filter0_bd_41_563)">
<rect x="17" y="14" width="40" height="40" rx="20" fill="url(#paint0_linear_41_563)" shape-rendering="crispEdges"/>
</g>
<g style="mix-blend-mode:overlay" opacity="0.2">
<rect x="17" y="14" width="40" height="40" rx="20" fill="#FFD800"/>
</g>
<g clip-path="url(#clip0_41_563)">
<path d="M35.7441 32.8919C36.1522 32.3063 37.0111 32.2964 37.4344 32.8621L37.4559 32.8919L41.8583 39.2099C41.859 39.2109 41.8599 39.2117 41.8609 39.2122C41.8619 39.2128 41.8631 39.2131 41.8643 39.2132L41.8676 39.2126L41.8705 39.2105C41.8712 39.2096 41.8722 39.2089 41.8733 39.2085C41.8743 39.208 41.8755 39.2078 41.8766 39.2079L41.8799 39.2088L41.8826 39.2111L43.3093 41.1566C43.385 41.2597 43.3749 41.403 43.283 41.492C41.5547 43.1682 39.1979 44.2 36.6 44.2C34.0022 44.2 31.6454 43.1682 29.9171 41.492C29.8306 41.408 29.8166 41.2764 29.8783 41.1751L29.8907 41.1564L31.3175 39.211C31.3181 39.2101 31.319 39.2093 31.32 39.2087C31.3211 39.2082 31.3222 39.2079 31.3234 39.2079L31.3268 39.2085L31.3295 39.2105C31.3303 39.2114 31.3313 39.2121 31.3323 39.2126C31.3334 39.2131 31.3346 39.2133 31.3358 39.2132L31.3391 39.2122L31.3418 39.2099L35.7441 32.8919ZM36.6 25C41.902 25 46.2 29.2981 46.2 34.6C46.2 36.3871 45.7118 38.0601 44.8612 39.493C44.7727 39.6423 44.5673 39.656 44.4542 39.5292L44.441 39.5133L43.0448 37.6827C43.0162 37.6447 42.9982 37.5996 42.9929 37.5523C42.9875 37.505 42.9949 37.4571 43.0142 37.4136C43.3925 36.5526 43.6025 35.6008 43.6025 34.6C43.6025 30.7327 40.4674 27.5976 36.6 27.5976C32.7326 27.5976 29.5976 30.7327 29.5976 34.6C29.5976 35.6007 29.8076 36.5524 30.1858 37.4135C30.2036 37.4536 30.2113 37.4974 30.2082 37.5412C30.2051 37.585 30.1912 37.6273 30.1679 37.6645L30.1552 37.6827L28.7591 39.5133C28.6496 39.6569 28.4309 39.6483 28.3388 39.493C27.4883 38.0601 27 36.387 27 34.6C27 29.2981 31.2981 25 36.6 25Z" fill="#FAFAFF"/>
</g>
<defs>
<filter id="filter0_bd_41_563" x="-15" y="-18" width="104" height="104" filterUnits="userSpaceOnUse" color-interpolation-filters="sRGB">
<feFlood flood-opacity="0" result="BackgroundImageFix"/>
<feGaussianBlur in="BackgroundImageFix" stdDeviation="16"/>
<feComposite in2="SourceAlpha" operator="in" result="effect1_backgroundBlur_41_563"/>
<feColorMatrix in="SourceAlpha" type="matrix" values="0 0 0 0 0 0 0 0 0 0 0 0 0 0 0 0 0 0 127 0" result="hardAlpha"/>
<feMorphology radius="2.4" operator="erode" in="SourceAlpha" result="effect2_dropShadow_41_563"/>
<feOffset dy="3.2"/>
<feGaussianBlur stdDeviation="9.6"/>
<feComposite in2="hardAlpha" operator="out"/>
<feColorMatrix type="matrix" values="0 0 0 0 0 0 0 0 0 0 0 0 0 0 0 0 0 0 0.2 0"/>
<feBlend mode="normal" in2="effect1_backgroundBlur_41_563" result="effect2_dropShadow_41_563"/>
<feBlend mode="normal" in="SourceGraphic" in2="effect2_dropShadow_41_563" result="shape"/>
</filter>
<linearGradient id="paint0_linear_41_563" x1="18.0938" y1="19.3" x2="48.3049" y2="31.413" gradientUnits="userSpaceOnUse">
<stop stop-color="#FDFDFD" stop-opacity="0.3"/>
<stop offset="1" stop-color="#FDFDFD" stop-opacity="0.2"/>
</linearGradient>
<clipPath id="clip0_41_563">
<rect width="19.2" height="19.2" fill="white" transform="translate(27 25)"/>
</clipPath>
</defs>
</svg>
