<svg width="61" height="62" viewBox="0 0 61 62" fill="none" xmlns="http://www.w3.org/2000/svg">
<g id="Group 194">
<circle id="Ellipse 23" cx="30.8997" cy="31.012" r="30.0423" fill="#FFD800"/>
<path id="Vector" d="M46.6943 15.2155C46.8361 15.3576 46.9332 15.5382 46.9732 15.735C47.0133 15.9318 46.9947 16.136 46.9197 16.3222L34.9937 46.1362C34.8886 46.3988 34.7131 46.6273 34.4865 46.7965C34.2599 46.9658 33.9911 47.0692 33.7095 47.0955C33.4279 47.1218 33.1445 47.0698 32.8905 46.9454C32.6365 46.821 32.4218 46.629 32.2699 46.3904L25.7566 36.1531L15.5194 29.6398C15.2803 29.4881 15.0877 29.2733 14.9629 29.0191C14.8381 28.7649 14.786 28.4811 14.8123 28.1992C14.8386 27.9172 14.9423 27.648 15.1119 27.4212C15.2815 27.1944 15.5105 27.0189 15.7735 26.914L45.5875 14.9921C45.7738 14.9171 45.978 14.8985 46.1748 14.9386C46.3715 14.9787 46.5522 15.0757 46.6943 15.2175V15.2155ZM27.802 35.5547L33.4607 44.4454L43.1609 20.1958L27.802 35.5547ZM41.712 18.7468L17.4623 28.447L26.3551 34.1036L41.712 18.7468Z" fill="#020202"/>
</g>
</svg>
