<svg width="40" height="41" viewBox="0 0 40 41" fill="none" xmlns="http://www.w3.org/2000/svg">
<circle cx="20" cy="20.3481" r="20" fill="white"/>
<g clip-path="url(#clip0_171_12876)">
<path d="M17.7242 6.34815C26.1607 6.34815 33 13.1873 33 21.6239C33 26.8693 30.3562 31.4973 26.3283 34.2479L24.0742 29.1284C26.2031 27.3252 27.5547 24.6323 27.5547 21.6239C27.5547 16.1947 23.1533 11.7936 17.7242 11.7936C17.3014 11.7936 16.8848 11.8202 16.476 11.8721L14.2214 6.75166C15.3696 6.48289 16.545 6.34749 17.7243 6.34815M11.5594 14.0366L19.2018 31.4814C18.781 31.5359 18.352 31.5641 17.9163 31.5641C12.4397 31.564 8 27.1243 8 21.6477C8 18.59 9.38379 15.8556 11.5594 14.0366Z" fill="#303030"/>
</g>
<defs>
<clipPath id="clip0_171_12876">
<rect width="25" height="27.9297" fill="white" transform="translate(8 6.34814)"/>
</clipPath>
</defs>
</svg>
